<svg width="170" height="58" viewBox="0 0 170 58" fill="none" xmlns="http://www.w3.org/2000/svg">
<path d="M19.2275 4.44C20.2408 4.44 21.2942 4.62667 22.3875 5C23.4808 5.37333 24.4408 5.85333 25.2675 6.44C25.0008 7.8 24.7475 9.02667 24.5075 10.12C24.2942 11.2133 24.0942 12.2133 23.9075 13.12C23.7208 14 23.5342 14.8133 23.3475 15.56C23.1875 16.28 23.0275 16.96 22.8675 17.6C22.2275 20 21.5608 22.1733 20.8675 24.12C20.2008 26.04 19.4808 27.7733 18.7075 29.32C17.9608 30.8667 17.1608 32.24 16.3075 33.44C15.4808 34.64 14.5875 35.6933 13.6275 36.6C12.6942 37.48 11.7608 38.2 10.8275 38.76C9.89417 39.32 9.0275 39.68 8.2275 39.84C7.16083 39.84 6.17417 39.72 5.2675 39.48C4.36083 39.24 3.57417 38.9067 2.9075 38.48C2.2675 38.08 1.76083 37.5867 1.3875 37C1.04083 36.44 0.8675 35.8133 0.8675 35.12C0.8675 34.3733 1.05417 33.44 1.4275 32.32C1.80083 31.1733 2.37417 29.8267 3.1475 28.28C3.4675 28.3067 3.84083 28.3867 4.2675 28.52C4.69417 28.6533 5.12083 28.8133 5.5475 29C5.97417 29.1867 6.36083 29.4 6.7075 29.64C7.05417 29.8533 7.3075 30.0667 7.4675 30.28C6.61417 31.16 5.92083 32.1333 5.3875 33.2C4.85417 34.24 4.5875 35.1467 4.5875 35.92C4.5875 36.3733 4.6675 36.7733 4.8275 37.12C5.01417 37.4933 5.32083 37.8267 5.7475 38.12C7.37417 37.5067 8.96083 36.36 10.5075 34.68C12.0542 33.0267 13.4275 30.96 14.6275 28.48C15.3475 27.0133 16.0008 25.3333 16.5875 23.44C17.1742 21.5467 17.6675 19.6533 18.0675 17.76C18.4942 15.84 18.8142 14.0133 19.0275 12.28C19.2675 10.52 19.3875 9.04 19.3875 7.84C19.3875 7.65333 19.3742 7.4 19.3475 7.08C19.3475 6.73333 19.3342 6.38666 19.3075 6.04C19.3075 5.66666 19.2942 5.33333 19.2675 5.04C19.2408 4.74667 19.2275 4.54667 19.2275 4.44ZM28.6703 35.4C27.1503 35.24 25.937 34.5733 25.0303 33.4C24.1236 32.2267 23.6703 30.7333 23.6703 28.92C23.6703 27.8533 23.8303 26.7467 24.1503 25.6C24.4703 24.4533 24.9236 23.3467 25.5103 22.28C26.097 21.1867 26.7903 20.16 27.5903 19.2C28.3903 18.24 29.257 17.4133 30.1903 16.72C31.657 15.6267 33.0303 15.08 34.3103 15.08C35.1636 15.5333 36.0036 16.48 36.8303 17.92C36.9636 17.92 37.0836 17.92 37.1903 17.92C37.297 17.8933 37.417 17.88 37.5503 17.88C38.9636 17.88 39.6703 19.1333 39.6703 21.64C39.6703 23.32 39.3903 24.92 38.8303 26.44C38.297 27.9333 37.537 29.2933 36.5503 30.52C35.5903 31.7467 34.4303 32.7867 33.0703 33.64C31.737 34.4667 30.2703 35.0533 28.6703 35.4ZM30.7103 22.8C30.257 23.4133 29.8303 24.08 29.4303 24.8C29.0303 25.52 28.6836 26.2533 28.3903 27C28.097 27.72 27.8703 28.4267 27.7103 29.12C27.5503 29.7867 27.4703 30.3867 27.4703 30.92C27.4703 31.56 27.577 32.1733 27.7903 32.76C28.0036 33.3467 28.2436 33.68 28.5103 33.76C29.7103 33.4933 30.8036 33 31.7903 32.28C32.8036 31.5333 33.6703 30.6133 34.3903 29.52C35.137 28.4267 35.7103 27.1867 36.1103 25.8C36.537 24.4133 36.7503 22.9333 36.7503 21.36C36.7503 20.6667 36.7103 20.12 36.6303 19.72C36.5503 19.32 36.417 18.9733 36.2303 18.68C35.057 19.0267 34.0036 19.5867 33.0703 20.36C32.1636 21.1333 31.377 21.9467 30.7103 22.8ZM55.9266 17.44C55.8199 19.0933 55.5266 20.52 55.0466 21.72C54.5666 22.8933 53.8732 23.9333 52.9666 24.84C52.0866 25.72 51.0066 26.52 49.7266 27.24C48.4466 27.96 46.9532 28.6533 45.2466 29.32C45.2466 29.48 45.2332 29.6533 45.2066 29.84C45.2066 30 45.2066 30.1733 45.2066 30.36C45.2066 30.7067 45.2332 31.0667 45.2866 31.44C45.3399 31.8133 45.4332 32.16 45.5666 32.48C45.6999 32.8 45.8866 33.0667 46.1266 33.28C46.3666 33.4667 46.6732 33.56 47.0466 33.56C47.7666 33.56 48.4732 33.4 49.1666 33.08C49.8599 32.76 50.5132 32.3733 51.1266 31.92C51.7666 31.44 52.3532 30.9333 52.8866 30.4C53.4466 29.84 53.9399 29.3333 54.3666 28.88C54.6332 29.12 54.8599 29.3467 55.0466 29.56C53.8466 31.16 52.5266 32.4933 51.0866 33.56C49.6732 34.6 48.3266 35.2667 47.0466 35.56C45.2066 35.3467 43.7666 34.68 42.7266 33.56C41.7132 32.4133 41.2066 31.04 41.2066 29.44C41.2066 28.3467 41.3532 27.24 41.6466 26.12C41.9666 24.9733 42.3932 23.88 42.9266 22.84C43.4866 21.7733 44.1266 20.7733 44.8466 19.84C45.5932 18.9067 46.3799 18.0933 47.2066 17.4C48.0599 16.7067 48.9266 16.16 49.8066 15.76C50.7132 15.36 51.6066 15.16 52.4866 15.16C53.7132 15.32 54.8599 16.08 55.9266 17.44ZM53.1666 18.76C52.4466 18.8667 51.6999 19.16 50.9266 19.64C50.1532 20.12 49.4199 20.76 48.7266 21.56C48.0599 22.36 47.4466 23.2933 46.8866 24.36C46.3266 25.4267 45.8866 26.5733 45.5666 27.8C47.6999 26.7333 49.4732 25.4267 50.8866 23.88C52.2999 22.3067 53.0599 20.6 53.1666 18.76ZM93.5497 7.04C93.6297 7.49333 93.683 7.81333 93.7097 8C93.763 8.16 93.7897 8.38667 93.7897 8.68C93.7897 9.56 93.5897 10.3867 93.1897 11.16C92.8164 11.9067 92.2964 12.44 91.6297 12.76C91.0964 12.04 90.443 11.4267 89.6697 10.92C88.8964 10.3867 88.043 9.96 87.1097 9.64C86.203 9.29333 85.2564 9.04 84.2697 8.88C83.283 8.72 82.323 8.64 81.3897 8.64C80.4564 8.64 79.5764 8.72 78.7497 8.88C77.9497 9.01333 77.2297 9.21333 76.5897 9.48C75.9764 9.72 75.483 10.0267 75.1097 10.4C74.763 10.7733 74.5897 11.2 74.5897 11.68C74.6697 12.2667 75.0297 12.8667 75.6697 13.48C76.3097 14.0667 77.0964 14.6533 78.0297 15.24C78.963 15.8 79.9897 16.36 81.1097 16.92C82.2564 17.48 83.3764 18.0133 84.4697 18.52C85.8297 19.16 87.003 19.76 87.9897 20.32C88.9764 20.8533 89.7897 21.4533 90.4297 22.12C91.0697 22.76 91.5497 23.4933 91.8697 24.32C92.1897 25.1467 92.3497 26.1467 92.3497 27.32C92.3497 28.68 92.123 29.96 91.6697 31.16C91.2164 32.3333 90.5497 33.36 89.6697 34.24C88.8164 35.12 87.7764 35.8 86.5497 36.28C85.323 36.7867 83.9497 37.04 82.4297 37.04C80.9364 37.04 79.323 36.8133 77.5897 36.36C75.8564 35.9067 74.2297 35.28 72.7097 34.48C71.2164 33.7067 69.963 32.8133 68.9497 31.8C67.963 30.76 67.4697 29.6667 67.4697 28.52C67.4697 27.9867 67.6164 27.3067 67.9097 26.48C68.2297 25.6533 68.7897 24.7867 69.5897 23.88C69.6697 24.68 70.0964 25.6267 70.8697 26.72C71.6697 27.8133 72.8564 28.8267 74.4297 29.76C75.8964 30.6133 77.403 31.24 78.9497 31.64C80.523 32.0133 81.9897 32.2 83.3497 32.2C84.843 32.2 86.0564 32.0133 86.9897 31.64C87.923 31.2667 88.6564 30.8267 89.1897 30.32C89.723 29.7867 90.0964 29.2533 90.3097 28.72C90.523 28.1867 90.643 27.76 90.6697 27.44C90.643 26.9067 90.3897 26.4 89.9097 25.92C89.4564 25.4133 88.8297 24.9333 88.0297 24.48C87.2564 24 86.3497 23.52 85.3097 23.04C84.2697 22.56 83.1897 22.08 82.0697 21.6C80.3897 20.8533 78.9364 20.16 77.7097 19.52C76.5097 18.8533 75.5097 18.1867 74.7097 17.52C73.9364 16.8267 73.363 16.1067 72.9897 15.36C72.643 14.6133 72.4697 13.76 72.4697 12.8C72.4697 11.3067 72.923 9.89333 73.8297 8.56C74.7364 7.22666 76.043 6.21333 77.7497 5.52C78.603 5.14667 79.5097 4.88 80.4697 4.72C81.4564 4.56 82.4164 4.48 83.3497 4.48C85.1097 4.48 86.8297 4.72 88.5097 5.2C90.1897 5.68 91.8697 6.29333 93.5497 7.04ZM118.32 21.72C117.894 21.7467 117.374 22.0267 116.76 22.56C116.147 23.0667 115.48 23.7333 114.76 24.56C114.067 25.36 113.334 26.2533 112.56 27.24C111.814 28.2267 111.08 29.2133 110.36 30.2C109.667 31.16 109.014 32.0667 108.4 32.92C107.787 33.7733 107.267 34.4533 106.84 34.96C106.254 34.72 105.747 34.3733 105.32 33.92C104.894 33.44 104.587 32.8533 104.4 32.16C104.534 31.3333 104.72 30.48 104.96 29.6C105.2 28.6933 105.507 27.76 105.88 26.8C106.28 25.84 106.76 24.84 107.32 23.8C107.907 22.7333 108.614 21.6133 109.44 20.44C109.04 20.4667 108.494 20.76 107.8 21.32C107.107 21.8533 106.36 22.56 105.56 23.44C104.76 24.2933 103.934 25.2667 103.08 26.36C102.227 27.4267 101.427 28.48 100.68 29.52C99.6936 30.9067 98.867 32.12 98.2003 33.16C97.5603 34.2 97.0936 34.8133 96.8003 35C96.107 34.4933 95.627 33.9467 95.3603 33.36C95.0936 32.7733 94.8936 32.12 94.7603 31.4C94.787 30.76 94.8803 29.96 95.0403 29C95.227 28.04 95.4803 27.0533 95.8003 26.04C96.4136 24.0933 97.2003 22.16 98.1603 20.24C99.147 18.32 100.094 16.56 101 14.96C101.747 15.12 102.414 15.3733 103 15.72C103.614 16.0667 104.254 16.5733 104.92 17.24C104.654 18.0667 104.24 18.9467 103.68 19.88C103.12 20.7867 102.534 21.7467 101.92 22.76C101.307 23.7733 100.747 24.8133 100.24 25.88C99.7336 26.9467 99.4003 28.0267 99.2403 29.12C99.987 28.0533 100.867 26.8267 101.88 25.44C102.92 24.0533 103.974 22.7467 105.04 21.52C106.134 20.2933 107.214 19.2533 108.28 18.4C109.347 17.5467 110.307 17.12 111.16 17.12C111.48 17.12 111.827 17.1733 112.2 17.28C112.574 17.3867 112.92 17.52 113.24 17.68C113.56 17.84 113.827 18 114.04 18.16C114.254 18.2933 114.374 18.4 114.4 18.48C114.267 19.0133 113.947 19.7467 113.44 20.68C112.96 21.5867 112.44 22.5467 111.88 23.56C111.32 24.5733 110.8 25.56 110.32 26.52C109.84 27.4533 109.56 28.2 109.48 28.76C110.787 26.9733 112.014 25.36 113.16 23.92C114.307 22.4533 115.387 21.2 116.4 20.16C117.414 19.12 118.347 18.32 119.2 17.76C120.08 17.2 120.907 16.92 121.68 16.92C122.214 16.92 122.707 17.0667 123.16 17.36C123.64 17.6267 123.974 18.0267 124.16 18.56C123.92 19.36 123.52 20.32 122.96 21.44C122.427 22.56 121.88 23.7467 121.32 25C120.76 26.2267 120.254 27.44 119.8 28.64C119.374 29.84 119.16 30.92 119.16 31.88C119.16 32.44 119.24 32.8133 119.4 33C119.56 33.16 119.787 33.24 120.08 33.24C120.4 33.24 120.694 33.1867 120.96 33.08C121.254 32.9467 121.467 32.88 121.6 32.88C121.76 32.9867 121.854 33.12 121.88 33.28C121.907 33.44 121.92 33.5867 121.92 33.72C121.387 34.1467 120.84 34.4933 120.28 34.76C119.72 35.0533 119.094 35.2 118.4 35.2C117.76 35.2 117.227 35.0933 116.8 34.88C116.4 34.6667 116.067 34.3733 115.8 34C115.534 33.6267 115.347 33.2 115.24 32.72C115.134 32.24 115.08 31.72 115.08 31.16C115.08 30.2533 115.2 29.36 115.44 28.48C115.68 27.5733 115.96 26.72 116.28 25.92C116.627 25.0933 116.987 24.3333 117.36 23.64C117.734 22.92 118.054 22.28 118.32 21.72ZM125.826 31.32C125.826 31.08 125.84 30.7867 125.866 30.44C125.92 30.0667 126 29.5867 126.106 29C126.213 28.3867 126.346 27.6533 126.506 26.8C126.693 25.9467 126.92 24.92 127.186 23.72C127.24 23.4533 127.36 23.0267 127.546 22.44C127.733 21.8533 127.973 21.24 128.266 20.6C128.586 19.9333 128.96 19.2933 129.386 18.68C129.84 18.0667 130.373 17.6133 130.986 17.32C131.44 17.4267 132.04 17.7067 132.786 18.16C133.533 18.5867 134.173 19.1867 134.706 19.96C134.093 20.6533 133.573 21.3467 133.146 22.04C132.746 22.7333 132.373 23.4533 132.026 24.2C131.706 24.9467 131.4 25.72 131.106 26.52C130.84 27.32 130.533 28.16 130.186 29.04C129.893 29.7867 129.626 30.56 129.386 31.36C129.146 32.1333 129.013 32.8133 128.986 33.4C128.986 33.88 128.973 34.2133 128.946 34.4C128.946 34.6133 128.88 34.72 128.746 34.72C128.64 34.72 128.426 34.6533 128.106 34.52C127.786 34.3867 127.453 34.1867 127.106 33.92C126.786 33.6267 126.493 33.2667 126.226 32.84C125.96 32.4133 125.826 31.9067 125.826 31.32ZM133.466 13.96C133.466 13.8 133.506 13.56 133.586 13.24C133.453 13.1067 133.333 12.9067 133.226 12.64C133.146 12.3733 133.106 12.1333 133.106 11.92C133.106 11.68 133.133 11.36 133.186 10.96C133.266 10.5333 133.36 10.08 133.466 9.6C133.573 9.12 133.706 8.62667 133.866 8.12C134.026 7.58666 134.186 7.10666 134.346 6.68C134.666 6.68 135.053 6.77333 135.506 6.96C135.986 7.12 136.466 7.34667 136.946 7.64C137.426 7.90666 137.866 8.21333 138.266 8.56C138.666 8.88 138.973 9.18667 139.186 9.48C138.893 9.77333 138.506 10.1867 138.026 10.72C137.546 11.2267 137.08 11.7733 136.626 12.36C136.173 12.92 135.76 13.4533 135.386 13.96C135.013 14.4667 134.773 14.8267 134.666 15.04C134.346 14.9867 134.066 14.8533 133.826 14.64C133.586 14.4 133.466 14.1733 133.466 13.96ZM137.326 18.68C137.193 18.52 137.073 18.1867 136.966 17.68C136.859 17.1467 136.806 16.6933 136.806 16.32C137.499 16.3733 138.166 16.4267 138.806 16.48C139.446 16.5067 140.033 16.5333 140.566 16.56C140.966 15.76 141.393 14.9733 141.846 14.2C142.326 13.4 142.779 12.68 143.206 12.04C143.659 11.3733 144.073 10.8133 144.446 10.36C144.846 9.90667 145.153 9.61333 145.366 9.48C145.633 9.48 145.966 9.53333 146.366 9.64C146.793 9.72 147.219 9.84 147.646 10C148.073 10.1333 148.459 10.28 148.806 10.44C149.153 10.6 149.393 10.76 149.526 10.92C148.726 11.9333 148.033 12.88 147.446 13.76C146.886 14.6133 146.273 15.6 145.606 16.72C146.139 16.72 146.673 16.7067 147.206 16.68C147.766 16.6533 148.326 16.6133 148.886 16.56C149.019 16.6933 149.126 16.8667 149.206 17.08C149.286 17.2667 149.326 17.4667 149.326 17.68C148.019 18.16 146.433 18.4267 144.566 18.48C143.899 19.76 143.299 21.04 142.766 22.32C142.259 23.5733 141.819 24.7867 141.446 25.96C141.099 27.1333 140.819 28.24 140.606 29.28C140.419 30.32 140.326 31.2533 140.326 32.08C140.326 33.2533 140.766 33.9067 141.646 34.04C142.446 33.9333 143.206 33.7333 143.926 33.44C144.646 33.1467 145.286 32.7733 145.846 32.32C146.006 32.56 146.099 32.76 146.126 32.92C145.966 33.16 145.686 33.44 145.286 33.76C144.913 34.08 144.499 34.3867 144.046 34.68C143.593 35 143.153 35.2667 142.726 35.48C142.299 35.6933 141.979 35.8133 141.766 35.84C141.099 35.8133 140.433 35.6667 139.766 35.4C139.099 35.1333 138.486 34.8 137.926 34.4C137.393 34 136.953 33.56 136.606 33.08C136.259 32.5733 136.086 32.08 136.086 31.6C136.086 30.96 136.166 30.16 136.326 29.2C136.513 28.2133 136.766 27.1467 137.086 26C137.406 24.8533 137.779 23.6533 138.206 22.4C138.633 21.1467 139.099 19.9067 139.606 18.68H137.326ZM148.988 33.32C148.988 32.3867 149.082 31.2933 149.268 30.04C149.455 28.76 149.722 27.4 150.068 25.96C150.442 24.52 150.868 23.0133 151.348 21.44C151.855 19.8667 152.415 18.2933 153.028 16.72C153.562 15.3067 154.175 13.88 154.868 12.44C155.588 11 156.362 9.58666 157.188 8.2C158.015 6.81333 158.868 5.49333 159.748 4.24C160.655 2.98667 161.562 1.84 162.468 0.799998C162.895 0.799998 163.348 0.853332 163.828 0.959999C164.335 1.06667 164.815 1.21333 165.268 1.4C165.748 1.56 166.175 1.76 166.548 2C166.948 2.24 167.268 2.48 167.508 2.72C165.508 4.77333 163.708 6.85333 162.108 8.96C160.508 11.04 159.242 13 158.308 14.84C157.802 15.8533 157.335 16.8 156.908 17.68C156.508 18.56 156.135 19.44 155.788 20.32C155.442 21.1733 155.122 22.04 154.828 22.92C154.562 23.7733 154.308 24.68 154.068 25.64C159.188 19.1067 162.988 15.84 165.468 15.84C166.162 15.84 166.908 16.0667 167.708 16.52C168.508 16.9733 169.215 17.5867 169.828 18.36C169.002 19.2667 168.148 20.36 167.268 21.64C166.388 22.92 165.575 24.2133 164.828 25.52C164.108 26.8 163.508 28 163.028 29.12C162.575 30.2133 162.348 31.0267 162.348 31.56C162.348 31.8267 162.388 32.0133 162.468 32.12C162.548 32.2 162.722 32.24 162.988 32.24C163.388 32.24 163.708 32.1867 163.948 32.08C164.188 31.9733 164.335 31.92 164.388 31.92C164.522 32.1333 164.602 32.28 164.628 32.36C164.655 32.44 164.668 32.5067 164.668 32.56C164.668 32.6667 164.508 32.8267 164.188 33.04C163.868 33.2267 163.482 33.4267 163.028 33.64C162.602 33.8267 162.175 34 161.748 34.16C161.322 34.32 161.002 34.4 160.788 34.4C160.522 34.4 160.255 34.32 159.988 34.16C159.722 34.0267 159.482 33.84 159.268 33.6C159.082 33.36 158.922 33.0933 158.788 32.8C158.682 32.5067 158.628 32.2 158.628 31.88C158.628 31.48 158.735 30.8933 158.948 30.12C159.188 29.32 159.508 28.4 159.908 27.36C160.308 26.2933 160.788 25.1333 161.348 23.88C161.908 22.6267 162.508 21.3467 163.148 20.04C163.148 19.9333 163.095 19.88 162.988 19.88C162.908 19.88 162.695 19.9867 162.348 20.2C162.028 20.4133 161.722 20.6267 161.428 20.84C160.468 21.56 159.495 22.4533 158.508 23.52C157.548 24.56 156.602 25.7067 155.668 26.96C154.762 28.2133 153.895 29.5467 153.068 30.96C152.268 32.3467 151.575 33.7467 150.988 35.16C150.908 35.3467 150.788 35.52 150.628 35.68C150.468 35.84 150.335 35.92 150.228 35.92C150.148 35.92 150.028 35.8267 149.868 35.64C149.735 35.4533 149.602 35.2133 149.468 34.92C149.362 34.6533 149.255 34.3733 149.148 34.08C149.042 33.7867 148.988 33.5333 148.988 33.32ZM37.2886 54.144C36.5206 54.144 35.8752 53.9573 35.3526 53.584C34.8299 53.2107 34.4726 52.6827 34.2806 52L34.5366 51.968V57.28H33.2566V45.84H34.4566V47.744L34.2806 47.696C34.4832 47.0667 34.8672 46.576 35.4326 46.224C35.9979 45.8613 36.6539 45.68 37.4006 45.68C38.1259 45.68 38.7552 45.856 39.2886 46.208C39.8326 46.56 40.2539 47.0507 40.5526 47.68C40.8512 48.3093 41.0006 49.0453 41.0006 49.888C41.0006 50.7413 40.8459 51.488 40.5366 52.128C40.2272 52.768 39.7952 53.264 39.2406 53.616C38.6859 53.968 38.0352 54.144 37.2886 54.144ZM37.0966 53.024C37.9072 53.024 38.5419 52.7467 39.0006 52.192C39.4592 51.6267 39.6886 50.8587 39.6886 49.888C39.6886 48.928 39.4592 48.176 39.0006 47.632C38.5419 47.0773 37.9072 46.8 37.0966 46.8C36.2859 46.8 35.6459 47.0827 35.1766 47.648C34.7072 48.2027 34.4726 48.9653 34.4726 49.936C34.4726 50.8853 34.7072 51.6373 35.1766 52.192C35.6459 52.7467 36.2859 53.024 37.0966 53.024ZM42.9597 54V42.48H44.2397V54H42.9597ZM48.7997 54V48.656C48.7997 48.0373 48.645 47.5733 48.3357 47.264C48.0264 46.9547 47.5677 46.8 46.9597 46.8C46.4264 46.8 45.9517 46.9173 45.5357 47.152C45.1304 47.3867 44.8104 47.712 44.5757 48.128C44.3517 48.544 44.2397 49.0293 44.2397 49.584L44.0317 47.648C44.309 47.04 44.7304 46.56 45.2957 46.208C45.8717 45.856 46.5224 45.68 47.2477 45.68C48.101 45.68 48.7837 45.9253 49.2957 46.416C49.8184 46.896 50.0797 47.5307 50.0797 48.32V54H48.7997ZM55.9298 54.16C55.1298 54.16 54.4258 53.9733 53.8178 53.6C53.2098 53.2267 52.7351 52.72 52.3938 52.08C52.0631 51.4293 51.8978 50.6987 51.8978 49.888C51.8978 49.0667 52.0685 48.3413 52.4098 47.712C52.7511 47.0827 53.2205 46.5867 53.8178 46.224C54.4258 45.8613 55.1298 45.68 55.9298 45.68C56.7405 45.68 57.4445 45.8613 58.0418 46.224C58.6498 46.5867 59.1191 47.0827 59.4498 47.712C59.7911 48.3413 59.9618 49.0667 59.9618 49.888C59.9618 50.6987 59.7911 51.4293 59.4498 52.08C59.1191 52.72 58.6498 53.2267 58.0418 53.6C57.4445 53.9733 56.7405 54.16 55.9298 54.16ZM55.9298 53.072C56.4845 53.072 56.9645 52.9387 57.3698 52.672C57.7751 52.3947 58.0898 52.016 58.3138 51.536C58.5378 51.056 58.6498 50.5013 58.6498 49.872C58.6498 48.9333 58.3991 48.1813 57.8978 47.616C57.4071 47.0507 56.7511 46.768 55.9298 46.768C55.1191 46.768 54.4631 47.0507 53.9618 47.616C53.4605 48.1813 53.2098 48.9333 53.2098 49.872C53.2098 50.5013 53.3218 51.056 53.5458 51.536C53.7698 52.016 54.0845 52.3947 54.4898 52.672C54.9058 52.9387 55.3858 53.072 55.9298 53.072ZM65.0674 54.144C64.1608 54.144 63.4994 53.9413 63.0834 53.536C62.6781 53.12 62.4754 52.5227 62.4754 51.744V43.936L63.7554 43.456V51.728C63.7554 52.1867 63.8728 52.5227 64.1074 52.736C64.3421 52.9493 64.7261 53.056 65.2594 53.056C65.4728 53.056 65.6541 53.0453 65.8034 53.024C65.9634 52.992 66.0914 52.9547 66.1874 52.912V54C66.0808 54.0427 65.9261 54.0747 65.7234 54.096C65.5314 54.128 65.3128 54.144 65.0674 54.144ZM60.7954 46.928V45.84H66.1874V46.928H60.7954ZM71.0392 54.16C70.2392 54.16 69.5352 53.9733 68.9272 53.6C68.3192 53.2267 67.8445 52.72 67.5032 52.08C67.1725 51.4293 67.0072 50.6987 67.0072 49.888C67.0072 49.0667 67.1779 48.3413 67.5192 47.712C67.8605 47.0827 68.3299 46.5867 68.9272 46.224C69.5352 45.8613 70.2392 45.68 71.0392 45.68C71.8499 45.68 72.5539 45.8613 73.1512 46.224C73.7592 46.5867 74.2285 47.0827 74.5592 47.712C74.9005 48.3413 75.0712 49.0667 75.0712 49.888C75.0712 50.6987 74.9005 51.4293 74.5592 52.08C74.2285 52.72 73.7592 53.2267 73.1512 53.6C72.5539 53.9733 71.8499 54.16 71.0392 54.16ZM71.0392 53.072C71.5939 53.072 72.0739 52.9387 72.4792 52.672C72.8845 52.3947 73.1992 52.016 73.4232 51.536C73.6472 51.056 73.7592 50.5013 73.7592 49.872C73.7592 48.9333 73.5085 48.1813 73.0072 47.616C72.5165 47.0507 71.8605 46.768 71.0392 46.768C70.2285 46.768 69.5725 47.0507 69.0712 47.616C68.5699 48.1813 68.3192 48.9333 68.3192 49.872C68.3192 50.5013 68.4312 51.056 68.6552 51.536C68.8792 52.016 69.1939 52.3947 69.5992 52.672C70.0152 52.9387 70.4952 53.072 71.0392 53.072ZM80.2389 57.44C79.2683 57.44 78.4576 57.2107 77.8069 56.752C77.1669 56.304 76.7776 55.7067 76.6389 54.96H77.8549C77.9723 55.3867 78.2336 55.7227 78.6389 55.968C79.0549 56.224 79.6149 56.352 80.3189 56.352C81.1509 56.352 81.7803 56.1227 82.2069 55.664C82.6336 55.216 82.8469 54.5547 82.8469 53.68V51.936L83.0069 51.968C82.8256 52.5867 82.4629 53.0827 81.9189 53.456C81.3749 53.8187 80.7296 54 79.9829 54C79.2683 54 78.6389 53.8293 78.0949 53.488C77.5509 53.136 77.1296 52.6507 76.8309 52.032C76.5323 51.4133 76.3829 50.6933 76.3829 49.872C76.3829 49.04 76.5376 48.3093 76.8469 47.68C77.1563 47.0507 77.5883 46.5653 78.1429 46.224C78.7083 45.872 79.3643 45.696 80.1109 45.696C80.8789 45.696 81.5189 45.8827 82.0309 46.256C82.5536 46.6293 82.9003 47.1627 83.0709 47.856L82.9269 47.872V45.84H84.1269V53.68C84.1269 54.8427 83.7803 55.76 83.0869 56.432C82.3936 57.104 81.4443 57.44 80.2389 57.44ZM80.3029 52.896C81.1029 52.896 81.7376 52.6187 82.2069 52.064C82.6763 51.5093 82.9109 50.7573 82.9109 49.808C82.9109 48.88 82.6763 48.1493 82.2069 47.616C81.7376 47.072 81.1029 46.8 80.3029 46.8C79.4923 46.8 78.8523 47.072 78.3829 47.616C77.9243 48.16 77.6949 48.9067 77.6949 49.856C77.6949 50.784 77.9296 51.5253 78.3989 52.08C78.8683 52.624 79.5029 52.896 80.3029 52.896ZM86.6941 54V45.84H87.8941V47.92H87.9741V54H86.6941ZM87.9741 49.744L87.7661 47.808C87.9581 47.1147 88.2994 46.5867 88.7901 46.224C89.2807 45.8613 89.8461 45.68 90.4861 45.68C90.7527 45.68 90.9341 45.7013 91.0301 45.744V46.976C90.9767 46.9547 90.9021 46.944 90.8061 46.944C90.7101 46.9333 90.5927 46.928 90.4541 46.928C89.6434 46.928 89.0247 47.1733 88.5981 47.664C88.1821 48.144 87.9741 48.8373 87.9741 49.744ZM97.4677 54C97.425 53.8187 97.393 53.6107 97.3717 53.376C97.361 53.1413 97.3557 52.8427 97.3557 52.48H97.2757V48.576C97.2757 47.9573 97.1317 47.504 96.8437 47.216C96.5664 46.9173 96.113 46.768 95.4837 46.768C94.865 46.768 94.369 46.896 93.9957 47.152C93.633 47.3973 93.4304 47.7493 93.3877 48.208H92.1557C92.209 47.4187 92.5397 46.8 93.1477 46.352C93.7557 45.904 94.5504 45.68 95.5317 45.68C96.545 45.68 97.297 45.92 97.7877 46.4C98.2784 46.88 98.5237 47.6 98.5237 48.56V52.48C98.5237 52.7147 98.5397 52.96 98.5717 53.216C98.6037 53.4613 98.6464 53.7227 98.6997 54H97.4677ZM94.6677 54.16C93.825 54.16 93.153 53.9573 92.6517 53.552C92.161 53.136 91.9157 52.5707 91.9157 51.856C91.9157 51.1413 92.161 50.5867 92.6517 50.192C93.1424 49.7973 93.857 49.52 94.7957 49.36L97.6437 48.88V49.936L94.9877 50.352C94.3904 50.448 93.937 50.608 93.6277 50.832C93.3184 51.056 93.1637 51.3813 93.1637 51.808C93.1637 52.224 93.3024 52.5387 93.5797 52.752C93.8677 52.9653 94.289 53.072 94.8437 53.072C95.5584 53.072 96.1397 52.912 96.5877 52.592C97.0464 52.2613 97.2757 51.8347 97.2757 51.312L97.4837 52.448C97.313 52.992 96.977 53.4133 96.4757 53.712C95.985 54.0107 95.3824 54.16 94.6677 54.16ZM105.023 54.144C104.255 54.144 103.61 53.9573 103.087 53.584C102.564 53.2107 102.207 52.6827 102.015 52L102.271 51.968V57.28H100.991V45.84H102.191V47.744L102.015 47.696C102.218 47.0667 102.602 46.576 103.167 46.224C103.732 45.8613 104.388 45.68 105.135 45.68C105.86 45.68 106.49 45.856 107.023 46.208C107.567 46.56 107.988 47.0507 108.287 47.68C108.586 48.3093 108.735 49.0453 108.735 49.888C108.735 50.7413 108.58 51.488 108.271 52.128C107.962 52.768 107.53 53.264 106.975 53.616C106.42 53.968 105.77 54.144 105.023 54.144ZM104.831 53.024C105.642 53.024 106.276 52.7467 106.735 52.192C107.194 51.6267 107.423 50.8587 107.423 49.888C107.423 48.928 107.194 48.176 106.735 47.632C106.276 47.0773 105.642 46.8 104.831 46.8C104.02 46.8 103.38 47.0827 102.911 47.648C102.442 48.2027 102.207 48.9653 102.207 49.936C102.207 50.8853 102.442 51.6373 102.911 52.192C103.38 52.7467 104.02 53.024 104.831 53.024ZM110.694 54V42.48H111.974V54H110.694ZM116.534 54V48.656C116.534 48.0373 116.379 47.5733 116.07 47.264C115.761 46.9547 115.302 46.8 114.694 46.8C114.161 46.8 113.686 46.9173 113.27 47.152C112.865 47.3867 112.545 47.712 112.31 48.128C112.086 48.544 111.974 49.0293 111.974 49.584L111.766 47.648C112.043 47.04 112.465 46.56 113.03 46.208C113.606 45.856 114.257 45.68 114.982 45.68C115.835 45.68 116.518 45.9253 117.03 46.416C117.553 46.896 117.814 47.5307 117.814 48.32V54H116.534ZM123.616 54.16C122.838 54.16 122.15 53.9787 121.552 53.616C120.955 53.2427 120.486 52.736 120.144 52.096C119.803 51.456 119.632 50.72 119.632 49.888C119.632 49.056 119.798 48.3253 120.128 47.696C120.47 47.056 120.944 46.56 121.552 46.208C122.16 45.856 122.859 45.68 123.648 45.68C124.406 45.68 125.062 45.8453 125.616 46.176C126.182 46.5067 126.614 46.9707 126.912 47.568C127.222 48.1653 127.376 48.8693 127.376 49.68C127.376 49.7867 127.371 49.888 127.36 49.984C127.36 50.08 127.35 50.1867 127.328 50.304H120.592V49.232H126.544L126.128 49.824C126.128 48.8427 125.91 48.0907 125.472 47.568C125.046 47.0347 124.438 46.768 123.648 46.768C122.838 46.768 122.182 47.0507 121.68 47.616C121.19 48.1707 120.944 48.9227 120.944 49.872C120.944 50.8427 121.19 51.6213 121.68 52.208C122.182 52.784 122.848 53.072 123.68 53.072C124.203 53.072 124.662 52.96 125.056 52.736C125.451 52.5013 125.739 52.1707 125.92 51.744H127.136C126.87 52.4907 126.422 53.0827 125.792 53.52C125.174 53.9467 124.448 54.16 123.616 54.16ZM129.303 54V45.84H130.503V47.92H130.583V54H129.303ZM130.583 49.744L130.375 47.808C130.567 47.1147 130.909 46.5867 131.399 46.224C131.89 45.8613 132.455 45.68 133.095 45.68C133.362 45.68 133.543 45.7013 133.639 45.744V46.976C133.586 46.9547 133.511 46.944 133.415 46.944C133.319 46.9333 133.202 46.928 133.063 46.928C132.253 46.928 131.634 47.1733 131.207 47.664C130.791 48.144 130.583 48.8373 130.583 49.744Z" fill="black"/>
</svg>
